<svg class="main-svg" xmlns="http://www.w3.org/2000/svg" xmlns:xlink="http://www.w3.org/1999/xlink" width="800" height="700" style="" viewBox="0 0 800 700"><rect x="0" y="0" width="800" height="700" style="fill: rgb(255, 255, 255); fill-opacity: 1;"/><defs id="defs-8e2179"><g class="clips"><clipPath id="clip8e2179xyplot" class="plotclip"><rect width="640" height="560"/></clipPath><clipPath class="axesclip" id="clip8e2179x"><rect x="80" y="0" width="640" height="700"/></clipPath><clipPath class="axesclip" id="clip8e2179y"><rect x="0" y="60" width="800" height="560"/></clipPath><clipPath class="axesclip" id="clip8e2179xy"><rect x="80" y="60" width="640" height="560"/></clipPath></g><g class="gradients"/><g class="patterns"/></defs><g class="bglayer"/><g class="layer-below"><g class="imagelayer"/><g class="shapelayer"/></g><g class="cartesianlayer"><g class="subplot xy"><g class="layer-subplot"><g class="shapelayer"/><g class="imagelayer"/></g><g class="minor-gridlayer"><g class="x"/><g class="y"/></g><g class="gridlayer"><g class="x"/><g class="y"/></g><g class="zerolinelayer"/><path class="xlines-below"/><path class="ylines-below"/><g class="overlines-below"/><g class="xaxislayer-below"/><g class="yaxislayer-below"/><g class="overaxes-below"/><g class="plot" transform="translate(80,60)" clip-path="url(#clip8e2179xyplot)"><g class="scatterlayer mlayer"><g class="trace scatter traceb3551e" style="stroke-miterlimit: 2; opacity: 1;"><g class="fills"/><g class="errorbars"/><g class="lines"><path class="js-line" d="M250.13,532L210.49,530.48L195.8,528.95L261.22,527.43L255.38,525.91L265.53,524.39L256.72,522.86L275.33,521.34L280.03,519.82L248.63,518.3L247.44,516.77L227.77,515.25L222.03,513.73L183.22,510.68L201.56,509.16L194.67,507.64L239.83,506.11L258.42,501.55L268.48,500.02L265.1,498.5L226.73,496.98L221.38,495.46L207.26,493.93L214.33,492.41L194.1,490.89L202.36,489.37L216.42,487.84L233.2,484.8L217.8,483.27L216.88,481.75L210.73,480.23L196.08,477.18L215.96,475.66L219.6,474.14L225.26,472.62L235.9,471.09L236.09,469.57L232.21,468.05L209.75,466.53L217.11,465L202.36,463.48L193.81,461.96L204.19,460.44L207.51,458.91L239.83,457.39L230.22,455.87L237.61,454.34L236.85,452.82L220.49,451.3L226.1,449.78L370.21,448.25L371.59,446.73L369.85,445.21L370.26,443.69L387.27,442.16L387.96,440.64L278.28,439.12L275.72,437.6L286.76,436.07L294.37,434.55L252.92,433.03L241.65,429.98L252.43,428.46L215.96,425.41L210.24,423.89L214.33,422.37L210.98,420.85L202.62,419.32L203.41,417.8L209.75,416.28L204.45,414.76L203.93,413.23L197.76,411.71L190.6,408.66L186.67,407.14L192.36,404.1L186.97,402.57L188.2,401.05L186.67,399.53L192.36,398.01L185.74,396.48L171.76,394.96L165.52,393.44L171.77,391.92L171.41,390.39L171.41,388.87L202.36,387.35L219.16,384.3L220.27,382.78L259.79,381.26L265.1,379.73L274.16,378.21L278.03,376.69L273.5,375.17L274.42,373.64L249.13,372.12L245.55,370.6L225.05,369.08L218.93,367.55L229.2,366.03L219.15,364.51L242.37,362.98L247.27,361.46L254.04,359.94L253.72,358.42L271.9,356.89L276.11,355.37L281.02,353.85L270.95,352.33L258.42,349.28L232.8,347.76L231.02,346.24L173.18,344.71L187.59,343.19L211.95,341.67L222.47,340.15L241.83,338.62L247.44,337.1L277.77,335.58L274.94,334.05L267.93,332.53L248.12,329.49L235.9,327.96L197.2,326.44L197.2,324.92L173.88,323.4L195.24,321.87L245.72,317.31L255.31,315.78L289.74,314.26L295.76,312.74L284.52,311.21L284.17,309.69L278.28,308.17L283.21,306.65L254.68,305.12L246.75,303.6L243.44,302.08L243.26,300.56L252.59,299.03L241.11,297.51L264.95,295.99L264.52,294.47L283.45,292.94L396.41,291.42L396.49,289.9L403.91,288.37L399.24,286.85L400.67,285.33L398.89,283.81L288.6,282.28L277.9,280.76L239.83,279.24L228.59,277.72L208.02,276.19L195.24,274.67L226.31,273.15L243.62,271.63L245.37,270.1L258.12,267.06L278.53,265.53L343.64,264.01L343.78,262.49L366.16,260.97L367.76,259.44L366.53,257.92L363.61,256.4L311.07,254.88L302.36,253.35L314.76,251.83L313.34,250.31L329.41,248.79L327.79,247.26L334.57,245.74L334.94,244.22L376.46,242.69L379.52,241.17L363.99,238.13L453.63,236.6L455.96,235.08L426.9,233.56L433.62,232.04L451.39,230.51L450.82,228.99L344.04,227.47L329.11,224.42L295.55,222.9L321.52,221.38L322.02,219.85L320.86,216.81L341.96,215.29L344.84,213.76L269.59,212.24L270,210.72L399.21,209.2L532,207.67L529.02,206.15L529.97,204.63L528.39,203.11L530.77,201.58L508.27,200.06L283.21,198.54L287.8,197.02L269.59,195.49L266.52,193.97L255.47,192.45L255.47,190.92L271.63,189.4L271.36,187.88L422.38,186.36L424.07,184.83L438.87,183.31L441.22,181.79L517.97,180.27L518.26,178.74L534.97,177.22L535.65,175.7L538.2,174.18L537.02,172.65L502.57,171.13L501.79,169.61L449.55,168.08L446.87,166.56L423.46,165.04L425.74,163.52L351.3,161.99L353.2,160.47L257.81,158.95L259.49,157.43L290.3,155.9L280.28,154.38L272.57,151.34L282.24,149.81L278.41,148.29L259.03,146.77L265.81,145.24L445.59,143.72L447.75,140.68L447.63,139.15L451.97,137.63L453.03,136.11L325.66,134.59L323.49,133.06L413.11,131.54L414.49,130.02L407.42,128.5L405.97,126.97L415.19,125.45L415.75,123.93L319.68,122.4L316.43,120.88L330.1,119.36L336.74,117.84L289.06,116.31L300.96,114.79L288.71,113.27L290.52,111.75L262.63,110.22L250.79,108.7L269.31,107.18L240.38,105.66L258.42,104.13L258.58,102.61L314.32,101.09L312.34,99.56L315.55,98.04L320.86,96.52L329.03,95L328.72,93.47L276.37,91.95L269.45,90.43L311.8,88.91L309.78,87.38L341.55,85.86L343.31,84.34L370.41,81.29L402.72,79.77L411.39,78.25L389.17,76.73L385.9,75.2L374.8,73.68L362.61,72.16L243.09,70.63L219.16,69.11L218.71,67.59L223.55,64.54L240.57,63.02L247.44,61.5L225.26,59.98L229.2,56.93L225.47,55.41L252.11,53.89L246.41,52.36L243.09,50.84L278.41,49.32L312.8,47.79L313.25,46.27L299.03,44.75L295.89,43.23L303.57,41.7L277.16,40.18L251.97,38.66L262.21,37.14L280.28,34.09L275.07,32.57L287.45,31.05L269.45,29.52L261.32,28" style="vector-effect: non-scaling-stroke; fill: none; stroke: rgb(31, 119, 180); stroke-opacity: 1; stroke-width: 2px; opacity: 1;"/></g><g class="points"/><g class="text"/></g></g></g><g class="overplot"/><path class="xlines-above crisp" d="M79,620.5H720" style="fill: none; stroke-width: 1px; stroke: rgb(36, 36, 36); stroke-opacity: 1;"/><path class="ylines-above crisp" d="M79.5,60V620" style="fill: none; stroke-width: 1px; stroke: rgb(36, 36, 36); stroke-opacity: 1;"/><g class="overlines-above"/><g class="xaxislayer-above"><path class="xtick ticks crisp" d="M0,621v5" transform="translate(80.37,0)" style="stroke: rgb(68, 68, 68); stroke-opacity: 1; stroke-width: 1px;"/><path class="xtick ticks crisp" d="M0,621v5" transform="translate(151.51,0)" style="stroke: rgb(68, 68, 68); stroke-opacity: 1; stroke-width: 1px;"/><path class="xtick ticks crisp" d="M0,621v5" transform="translate(222.65,0)" style="stroke: rgb(68, 68, 68); stroke-opacity: 1; stroke-width: 1px;"/><path class="xtick ticks crisp" d="M0,621v5" transform="translate(316.7,0)" style="stroke: rgb(68, 68, 68); stroke-opacity: 1; stroke-width: 1px;"/><path class="xtick ticks crisp" d="M0,621v5" transform="translate(387.84,0)" style="stroke: rgb(68, 68, 68); stroke-opacity: 1; stroke-width: 1px;"/><path class="xtick ticks crisp" d="M0,621v5" transform="translate(458.99,0)" style="stroke: rgb(68, 68, 68); stroke-opacity: 1; stroke-width: 1px;"/><path class="xtick ticks crisp" d="M0,621v5" transform="translate(553.03,0)" style="stroke: rgb(68, 68, 68); stroke-opacity: 1; stroke-width: 1px;"/><path class="xtick ticks crisp" d="M0,621v5" transform="translate(624.18,0)" style="stroke: rgb(68, 68, 68); stroke-opacity: 1; stroke-width: 1px;"/><path class="xtick ticks crisp" d="M0,621v5" transform="translate(695.32,0)" style="stroke: rgb(68, 68, 68); stroke-opacity: 1; stroke-width: 1px;"/><g class="xtick"><text text-anchor="middle" x="0" y="637.4" transform="translate(80.37,0)" style="font-family: 'Open Sans', verdana, arial, sans-serif; font-size: 9px; fill: rgb(36, 36, 36); fill-opacity: 1; white-space: pre; opacity: 1;">5</text></g><g class="xtick"><text text-anchor="middle" x="0" y="640.4" style="font-family: 'Open Sans', verdana, arial, sans-serif; font-size: 12px; fill: rgb(36, 36, 36); fill-opacity: 1; white-space: pre; opacity: 1;" transform="translate(151.51,0)">0.01</text></g><g class="xtick"><text text-anchor="middle" x="0" y="637.4" style="font-family: 'Open Sans', verdana, arial, sans-serif; font-size: 9px; fill: rgb(36, 36, 36); fill-opacity: 1; white-space: pre; opacity: 1;" transform="translate(222.65,0)">2</text></g><g class="xtick"><text text-anchor="middle" x="0" y="637.4" style="font-family: 'Open Sans', verdana, arial, sans-serif; font-size: 9px; fill: rgb(36, 36, 36); fill-opacity: 1; white-space: pre; opacity: 1;" transform="translate(316.7,0)">5</text></g><g class="xtick"><text text-anchor="middle" x="0" y="640.4" style="font-family: 'Open Sans', verdana, arial, sans-serif; font-size: 12px; fill: rgb(36, 36, 36); fill-opacity: 1; white-space: pre; opacity: 1;" transform="translate(387.84,0)">0.1</text></g><g class="xtick"><text text-anchor="middle" x="0" y="637.4" style="font-family: 'Open Sans', verdana, arial, sans-serif; font-size: 9px; fill: rgb(36, 36, 36); fill-opacity: 1; white-space: pre; opacity: 1;" transform="translate(458.99,0)">2</text></g><g class="xtick"><text text-anchor="middle" x="0" y="637.4" style="font-family: 'Open Sans', verdana, arial, sans-serif; font-size: 9px; fill: rgb(36, 36, 36); fill-opacity: 1; white-space: pre; opacity: 1;" transform="translate(553.03,0)">5</text></g><g class="xtick"><text text-anchor="middle" x="0" y="640.4" style="font-family: 'Open Sans', verdana, arial, sans-serif; font-size: 12px; fill: rgb(36, 36, 36); fill-opacity: 1; white-space: pre; opacity: 1;" transform="translate(624.18,0)">1</text></g><g class="xtick"><text text-anchor="middle" x="0" y="637.4" style="font-family: 'Open Sans', verdana, arial, sans-serif; font-size: 9px; fill: rgb(36, 36, 36); fill-opacity: 1; white-space: pre; opacity: 1;" transform="translate(695.32,0)">2</text></g></g><g class="yaxislayer-above"><path class="ytick ticks crisp" d="M79,0h-5" transform="translate(0,593.52)" style="stroke: rgb(68, 68, 68); stroke-opacity: 1; stroke-width: 1px;"/><path class="ytick ticks crisp" d="M79,0h-5" transform="translate(0,517.39)" style="stroke: rgb(68, 68, 68); stroke-opacity: 1; stroke-width: 1px;"/><path class="ytick ticks crisp" d="M79,0h-5" transform="translate(0,441.26)" style="stroke: rgb(68, 68, 68); stroke-opacity: 1; stroke-width: 1px;"/><path class="ytick ticks crisp" d="M79,0h-5" transform="translate(0,365.12)" style="stroke: rgb(68, 68, 68); stroke-opacity: 1; stroke-width: 1px;"/><path class="ytick ticks crisp" d="M79,0h-5" transform="translate(0,288.99)" style="stroke: rgb(68, 68, 68); stroke-opacity: 1; stroke-width: 1px;"/><path class="ytick ticks crisp" d="M79,0h-5" transform="translate(0,212.86)" style="stroke: rgb(68, 68, 68); stroke-opacity: 1; stroke-width: 1px;"/><path class="ytick ticks crisp" d="M79,0h-5" transform="translate(0,136.73000000000002)" style="stroke: rgb(68, 68, 68); stroke-opacity: 1; stroke-width: 1px;"/><path class="ytick ticks crisp" d="M79,0h-5" transform="translate(0,60.59)" style="stroke: rgb(68, 68, 68); stroke-opacity: 1; stroke-width: 1px;"/><g class="ytick"><text text-anchor="end" x="71.6" y="4.199999999999999" transform="translate(0,593.52)" style="font-family: 'Open Sans', verdana, arial, sans-serif; font-size: 12px; fill: rgb(36, 36, 36); fill-opacity: 1; white-space: pre; opacity: 1;">0</text></g><g class="ytick"><text text-anchor="end" x="71.6" y="4.199999999999999" style="font-family: 'Open Sans', verdana, arial, sans-serif; font-size: 12px; fill: rgb(36, 36, 36); fill-opacity: 1; white-space: pre; opacity: 1;" transform="translate(0,517.39)">50</text></g><g class="ytick"><text text-anchor="end" x="71.6" y="4.199999999999999" style="font-family: 'Open Sans', verdana, arial, sans-serif; font-size: 12px; fill: rgb(36, 36, 36); fill-opacity: 1; white-space: pre; opacity: 1;" transform="translate(0,441.26)">100</text></g><g class="ytick"><text text-anchor="end" x="71.6" y="4.199999999999999" style="font-family: 'Open Sans', verdana, arial, sans-serif; font-size: 12px; fill: rgb(36, 36, 36); fill-opacity: 1; white-space: pre; opacity: 1;" transform="translate(0,365.12)">150</text></g><g class="ytick"><text text-anchor="end" x="71.6" y="4.199999999999999" style="font-family: 'Open Sans', verdana, arial, sans-serif; font-size: 12px; fill: rgb(36, 36, 36); fill-opacity: 1; white-space: pre; opacity: 1;" transform="translate(0,288.99)">200</text></g><g class="ytick"><text text-anchor="end" x="71.6" y="4.199999999999999" style="font-family: 'Open Sans', verdana, arial, sans-serif; font-size: 12px; fill: rgb(36, 36, 36); fill-opacity: 1; white-space: pre; opacity: 1;" transform="translate(0,212.86)">250</text></g><g class="ytick"><text text-anchor="end" x="71.6" y="4.199999999999999" style="font-family: 'Open Sans', verdana, arial, sans-serif; font-size: 12px; fill: rgb(36, 36, 36); fill-opacity: 1; white-space: pre; opacity: 1;" transform="translate(0,136.73000000000002)">300</text></g><g class="ytick"><text text-anchor="end" x="71.6" y="4.199999999999999" style="font-family: 'Open Sans', verdana, arial, sans-serif; font-size: 12px; fill: rgb(36, 36, 36); fill-opacity: 1; white-space: pre; opacity: 1;" transform="translate(0,60.59)">350</text></g></g><g class="overaxes-above"/></g></g><g class="polarlayer"/><g class="smithlayer"/><g class="ternarylayer"/><g class="geolayer"/><g class="funnelarealayer"/><g class="pielayer"/><g class="iciclelayer"/><g class="treemaplayer"/><g class="sunburstlayer"/><g class="glimages"/><defs id="topdefs-8e2179"><g class="clips"/></defs><g class="layer-above"><g class="imagelayer"/><g class="shapelayer"/></g><g class="infolayer"><g class="g-gtitle"/><g class="g-xtitle"><text class="xtitle" x="400" y="668.20625" text-anchor="middle" style="font-family: 'Open Sans', verdana, arial, sans-serif; font-size: 14px; fill: rgb(36, 36, 36); opacity: 1; font-weight: normal; white-space: pre;">average</text></g><g class="g-ytitle"><text class="ytitle" transform="rotate(-90,23.903125000000003,340)" x="23.903125000000003" y="340" text-anchor="middle" style="font-family: 'Open Sans', verdana, arial, sans-serif; font-size: 14px; fill: rgb(36, 36, 36); opacity: 1; font-weight: normal; white-space: pre;">bed_number</text></g></g></svg>