<svg class="main-svg" xmlns="http://www.w3.org/2000/svg" xmlns:xlink="http://www.w3.org/1999/xlink" width="800" height="700" style="" viewBox="0 0 800 700"><rect x="0" y="0" width="800" height="700" style="fill: rgb(255, 255, 255); fill-opacity: 1;"/><defs id="defs-5f4c0e"><g class="clips"><clipPath id="clip5f4c0exyplot" class="plotclip"><rect width="640" height="560"/></clipPath><clipPath class="axesclip" id="clip5f4c0ex"><rect x="80" y="0" width="640" height="700"/></clipPath><clipPath class="axesclip" id="clip5f4c0ey"><rect x="0" y="60" width="800" height="560"/></clipPath><clipPath class="axesclip" id="clip5f4c0exy"><rect x="80" y="60" width="640" height="560"/></clipPath></g><g class="gradients"/><g class="patterns"/></defs><g class="bglayer"/><g class="layer-below"><g class="imagelayer"/><g class="shapelayer"/></g><g class="cartesianlayer"><g class="subplot xy"><g class="layer-subplot"><g class="shapelayer"/><g class="imagelayer"/></g><g class="minor-gridlayer"><g class="x"/><g class="y"/></g><g class="gridlayer"><g class="x"/><g class="y"/></g><g class="zerolinelayer"/><path class="xlines-below"/><path class="ylines-below"/><g class="overlines-below"/><g class="xaxislayer-below"/><g class="yaxislayer-below"/><g class="overaxes-below"/><g class="plot" transform="translate(80,60)" clip-path="url(#clip5f4c0exyplot)"><g class="scatterlayer mlayer"><g class="trace scatter tracef3c7e5" style="stroke-miterlimit: 2; opacity: 1;"><g class="fills"/><g class="errorbars"/><g class="lines"><path class="js-line" d="M239.05,532L308.41,530.02L290.98,528.05L320.65,526.07L303.37,524.09L303.79,522.12L305.46,520.14L279.19,518.16L269.35,516.19L218.82,514.21L232.2,512.24L213.49,510.26L222.96,508.28L232.49,506.31L232.2,504.33L264.89,502.35L261.94,500.38L326.25,498.4L314.67,496.42L318.8,494.45L318.8,492.47L320.86,490.49L315.31,488.52L297.33,486.54L300.45,484.56L294.57,482.59L298.98,480.61L272.67,478.64L275.51,476.66L195.59,474.68L194.36,472.71L201.53,470.73L188.86,468.75L253.26,466.78L252.33,464.8L306.99,462.82L307.81,460.85L314.67,458.87L314.8,456.89L316.32,454.92L323.36,452.94L276.81,450.96L289.15,448.99L317.07,447.01L324.75,445.04L301.62,441.08L318.06,439.11L306.43,437.13L268.35,435.15L258.03,433.18L258.47,431.2L259.79,429.22L271.9,427.25L272.29,425.27L277.37,423.29L292.05,421.32L287.67,419.34L289.96,417.36L300.31,415.39L301.76,413.41L295.8,411.44L266.53,407.48L267.95,405.51L223.89,403.53L229.31,401.55L274.2,399.58L284.97,397.6L368.62,395.62L367.94,393.65L365.17,389.69L351.5,387.72L345.43,385.74L244.8,383.76L241.2,381.79L235.01,379.81L244.54,377.84L323.24,375.86L330.49,373.88L332.87,371.91L339.09,369.93L353.61,367.95L354.74,365.98L313.39,364L308.89,362.02L306.3,360.05L299.27,358.07L268.55,356.09L272.48,354.12L266.74,352.14L269.75,350.16L258.47,348.19L268.75,346.21L283.6,344.24L291.42,342.26L274.39,340.28L269.75,338.31L390.92,336.33L389.08,334.35L385.69,332.38L382.9,330.4L386.7,328.42L389.27,326.45L265.92,324.47L283.43,322.49L277.92,320.52L261.73,318.54L265.71,316.56L264.47,314.59L270.53,312.61L253.5,310.64L249.48,308.66L254.65,306.68L235.84,304.71L231.05,302.73L210.71,300.75L213.15,298.78L228.13,296.8L230.19,294.82L456.38,292.85L457.53,288.89L456.96,286.92L454.76,282.96L212.46,280.99L219.79,279.01L207.5,277.04L309.7,275.06L308.08,273.08L324.99,271.11L322.65,269.13L336.03,267.15L354.66,265.18L337.27,263.2L336.75,261.22L370.12,259.25L371.89,257.27L414.26,255.29L405.69,253.32L389.97,251.34L394.88,249.36L363.64,247.39L376.15,245.41L289.2,243.44L312.39,241.46L320.59,239.48L322.95,237.51L313.25,233.55L303.05,231.58L280.97,229.6L274.01,227.62L278.18,223.67L256.76,221.69L277.39,219.72L268.12,217.74L294.3,215.76L277.55,213.79L295.1,211.81L287.92,209.84L268.29,207.86L272.53,205.88L221.25,203.91L243.11,201.93L254.41,199.95L259.25,197.98L276.28,196L279.9,194.02L314.92,192.05L316.88,190.07L305.24,188.09L304.76,186.12L299.02,184.14L299.02,182.16L263.51,180.19L251.4,178.21L234.82,176.24L236.49,174.26L290.32,172.28L293.76,170.31L325.75,168.33L336.27,166.35L363.13,164.38L364.29,162.4L339.78,160.42L337.16,158.45L312.69,154.49L256.96,152.52L258.11,150.54L348.93,148.56L349.01,146.59L369.65,144.61L370.48,142.64L385.78,140.66L382.54,138.68L338.83,136.71L333.19,134.73L303.05,132.75L335.01,128.8L336.8,126.82L324.46,124.85L326.83,122.87L320.89,120.89L301.43,118.92L296.03,116.94L300.68,114.96L320.27,112.99L317.41,111.01L335.01,109.04L339,107.06L307.28,105.08L304.03,103.11L333.83,101.13L351.35,99.15L349.33,97.18L345.4,95.2L361.82,93.22L366.17,91.25L334.74,89.27L322.44,87.29L288.92,85.32L298.76,83.34L269.32,81.36L272.2,79.39L267.6,77.41L254.01,75.44L255.98,73.46L333.92,71.48L333.28,69.51L328.96,67.53L356.53,65.55L359.28,63.58L356.24,61.6L295.9,59.62L294.56,57.65L297.73,55.67L255.4,53.69L257.53,51.72L263.87,49.74L264.77,47.76L271.69,45.79L272.69,43.81L281.89,41.84L314.14,39.86L304.76,35.91L293.89,33.93L286.05,31.95L258.87,29.98L238.52,28" style="vector-effect: non-scaling-stroke; fill: none; stroke: rgb(31, 119, 180); stroke-opacity: 1; stroke-width: 2px; opacity: 1;"/></g><g class="points"/><g class="text"/></g></g></g><g class="overplot"/><path class="xlines-above crisp" d="M79,620.5H720" style="fill: none; stroke-width: 1px; stroke: rgb(36, 36, 36); stroke-opacity: 1;"/><path class="ylines-above crisp" d="M79.5,60V620" style="fill: none; stroke-width: 1px; stroke: rgb(36, 36, 36); stroke-opacity: 1;"/><g class="overlines-above"/><g class="xaxislayer-above"><path class="xtick ticks crisp" d="M0,621v5" transform="translate(80.37,0)" style="stroke: rgb(68, 68, 68); stroke-opacity: 1; stroke-width: 1px;"/><path class="xtick ticks crisp" d="M0,621v5" transform="translate(151.51,0)" style="stroke: rgb(68, 68, 68); stroke-opacity: 1; stroke-width: 1px;"/><path class="xtick ticks crisp" d="M0,621v5" transform="translate(222.65,0)" style="stroke: rgb(68, 68, 68); stroke-opacity: 1; stroke-width: 1px;"/><path class="xtick ticks crisp" d="M0,621v5" transform="translate(316.7,0)" style="stroke: rgb(68, 68, 68); stroke-opacity: 1; stroke-width: 1px;"/><path class="xtick ticks crisp" d="M0,621v5" transform="translate(387.84,0)" style="stroke: rgb(68, 68, 68); stroke-opacity: 1; stroke-width: 1px;"/><path class="xtick ticks crisp" d="M0,621v5" transform="translate(458.99,0)" style="stroke: rgb(68, 68, 68); stroke-opacity: 1; stroke-width: 1px;"/><path class="xtick ticks crisp" d="M0,621v5" transform="translate(553.03,0)" style="stroke: rgb(68, 68, 68); stroke-opacity: 1; stroke-width: 1px;"/><path class="xtick ticks crisp" d="M0,621v5" transform="translate(624.18,0)" style="stroke: rgb(68, 68, 68); stroke-opacity: 1; stroke-width: 1px;"/><path class="xtick ticks crisp" d="M0,621v5" transform="translate(695.32,0)" style="stroke: rgb(68, 68, 68); stroke-opacity: 1; stroke-width: 1px;"/><g class="xtick"><text text-anchor="middle" x="0" y="637.4" transform="translate(80.37,0)" style="font-family: 'Open Sans', verdana, arial, sans-serif; font-size: 9px; fill: rgb(36, 36, 36); fill-opacity: 1; white-space: pre; opacity: 1;">5</text></g><g class="xtick"><text text-anchor="middle" x="0" y="640.4" style="font-family: 'Open Sans', verdana, arial, sans-serif; font-size: 12px; fill: rgb(36, 36, 36); fill-opacity: 1; white-space: pre; opacity: 1;" transform="translate(151.51,0)">0.01</text></g><g class="xtick"><text text-anchor="middle" x="0" y="637.4" style="font-family: 'Open Sans', verdana, arial, sans-serif; font-size: 9px; fill: rgb(36, 36, 36); fill-opacity: 1; white-space: pre; opacity: 1;" transform="translate(222.65,0)">2</text></g><g class="xtick"><text text-anchor="middle" x="0" y="637.4" style="font-family: 'Open Sans', verdana, arial, sans-serif; font-size: 9px; fill: rgb(36, 36, 36); fill-opacity: 1; white-space: pre; opacity: 1;" transform="translate(316.7,0)">5</text></g><g class="xtick"><text text-anchor="middle" x="0" y="640.4" style="font-family: 'Open Sans', verdana, arial, sans-serif; font-size: 12px; fill: rgb(36, 36, 36); fill-opacity: 1; white-space: pre; opacity: 1;" transform="translate(387.84,0)">0.1</text></g><g class="xtick"><text text-anchor="middle" x="0" y="637.4" style="font-family: 'Open Sans', verdana, arial, sans-serif; font-size: 9px; fill: rgb(36, 36, 36); fill-opacity: 1; white-space: pre; opacity: 1;" transform="translate(458.99,0)">2</text></g><g class="xtick"><text text-anchor="middle" x="0" y="637.4" style="font-family: 'Open Sans', verdana, arial, sans-serif; font-size: 9px; fill: rgb(36, 36, 36); fill-opacity: 1; white-space: pre; opacity: 1;" transform="translate(553.03,0)">5</text></g><g class="xtick"><text text-anchor="middle" x="0" y="640.4" style="font-family: 'Open Sans', verdana, arial, sans-serif; font-size: 12px; fill: rgb(36, 36, 36); fill-opacity: 1; white-space: pre; opacity: 1;" transform="translate(624.18,0)">1</text></g><g class="xtick"><text text-anchor="middle" x="0" y="637.4" style="font-family: 'Open Sans', verdana, arial, sans-serif; font-size: 9px; fill: rgb(36, 36, 36); fill-opacity: 1; white-space: pre; opacity: 1;" transform="translate(695.32,0)">2</text></g></g><g class="yaxislayer-above"><path class="ytick ticks crisp" d="M79,0h-5" transform="translate(0,593.98)" style="stroke: rgb(68, 68, 68); stroke-opacity: 1; stroke-width: 1px;"/><path class="ytick ticks crisp" d="M79,0h-5" transform="translate(0,495.15)" style="stroke: rgb(68, 68, 68); stroke-opacity: 1; stroke-width: 1px;"/><path class="ytick ticks crisp" d="M79,0h-5" transform="translate(0,396.33)" style="stroke: rgb(68, 68, 68); stroke-opacity: 1; stroke-width: 1px;"/><path class="ytick ticks crisp" d="M79,0h-5" transform="translate(0,297.51)" style="stroke: rgb(68, 68, 68); stroke-opacity: 1; stroke-width: 1px;"/><path class="ytick ticks crisp" d="M79,0h-5" transform="translate(0,198.68)" style="stroke: rgb(68, 68, 68); stroke-opacity: 1; stroke-width: 1px;"/><path class="ytick ticks crisp" d="M79,0h-5" transform="translate(0,99.86)" style="stroke: rgb(68, 68, 68); stroke-opacity: 1; stroke-width: 1px;"/><g class="ytick"><text text-anchor="end" x="71.6" y="4.199999999999999" transform="translate(0,593.98)" style="font-family: 'Open Sans', verdana, arial, sans-serif; font-size: 12px; fill: rgb(36, 36, 36); fill-opacity: 1; white-space: pre; opacity: 1;">0</text></g><g class="ytick"><text text-anchor="end" x="71.6" y="4.199999999999999" style="font-family: 'Open Sans', verdana, arial, sans-serif; font-size: 12px; fill: rgb(36, 36, 36); fill-opacity: 1; white-space: pre; opacity: 1;" transform="translate(0,495.15)">50</text></g><g class="ytick"><text text-anchor="end" x="71.6" y="4.199999999999999" style="font-family: 'Open Sans', verdana, arial, sans-serif; font-size: 12px; fill: rgb(36, 36, 36); fill-opacity: 1; white-space: pre; opacity: 1;" transform="translate(0,396.33)">100</text></g><g class="ytick"><text text-anchor="end" x="71.6" y="4.199999999999999" style="font-family: 'Open Sans', verdana, arial, sans-serif; font-size: 12px; fill: rgb(36, 36, 36); fill-opacity: 1; white-space: pre; opacity: 1;" transform="translate(0,297.51)">150</text></g><g class="ytick"><text text-anchor="end" x="71.6" y="4.199999999999999" style="font-family: 'Open Sans', verdana, arial, sans-serif; font-size: 12px; fill: rgb(36, 36, 36); fill-opacity: 1; white-space: pre; opacity: 1;" transform="translate(0,198.68)">200</text></g><g class="ytick"><text text-anchor="end" x="71.6" y="4.199999999999999" style="font-family: 'Open Sans', verdana, arial, sans-serif; font-size: 12px; fill: rgb(36, 36, 36); fill-opacity: 1; white-space: pre; opacity: 1;" transform="translate(0,99.86)">250</text></g></g><g class="overaxes-above"/></g></g><g class="polarlayer"/><g class="smithlayer"/><g class="ternarylayer"/><g class="geolayer"/><g class="funnelarealayer"/><g class="pielayer"/><g class="iciclelayer"/><g class="treemaplayer"/><g class="sunburstlayer"/><g class="glimages"/><defs id="topdefs-5f4c0e"><g class="clips"/></defs><g class="layer-above"><g class="imagelayer"/><g class="shapelayer"/></g><g class="infolayer"><g class="g-gtitle"/><g class="g-xtitle"><text class="xtitle" x="400" y="668.20625" text-anchor="middle" style="font-family: 'Open Sans', verdana, arial, sans-serif; font-size: 14px; fill: rgb(36, 36, 36); opacity: 1; font-weight: normal; white-space: pre;">average</text></g><g class="g-ytitle"><text class="ytitle" transform="rotate(-90,23.903125000000003,340)" x="23.903125000000003" y="340" text-anchor="middle" style="font-family: 'Open Sans', verdana, arial, sans-serif; font-size: 14px; fill: rgb(36, 36, 36); opacity: 1; font-weight: normal; white-space: pre;">bed_number_combined</text></g></g></svg>