<svg class="main-svg" xmlns="http://www.w3.org/2000/svg" xmlns:xlink="http://www.w3.org/1999/xlink" width="800" height="700" style="" viewBox="0 0 800 700"><rect x="0" y="0" width="800" height="700" style="fill: rgb(255, 255, 255); fill-opacity: 1;"/><defs id="defs-5e2a09"><g class="clips"><clipPath id="clip5e2a09xyplot" class="plotclip"><rect width="640" height="560"/></clipPath><clipPath class="axesclip" id="clip5e2a09x"><rect x="80" y="0" width="640" height="700"/></clipPath><clipPath class="axesclip" id="clip5e2a09y"><rect x="0" y="60" width="800" height="560"/></clipPath><clipPath class="axesclip" id="clip5e2a09xy"><rect x="80" y="60" width="640" height="560"/></clipPath></g><g class="gradients"/><g class="patterns"/></defs><g class="bglayer"/><g class="layer-below"><g class="imagelayer"/><g class="shapelayer"/></g><g class="cartesianlayer"><g class="subplot xy"><g class="layer-subplot"><g class="shapelayer"/><g class="imagelayer"/></g><g class="minor-gridlayer"><g class="x"/><g class="y"/></g><g class="gridlayer"><g class="x"/><g class="y"/></g><g class="zerolinelayer"/><path class="xlines-below"/><path class="ylines-below"/><g class="overlines-below"/><g class="xaxislayer-below"/><g class="yaxislayer-below"/><g class="overaxes-below"/><g class="plot" transform="translate(80,60)" clip-path="url(#clip5e2a09xyplot)"><g class="scatterlayer mlayer"><g class="trace scatter tracec36cca" style="stroke-miterlimit: 2; opacity: 1;"><g class="fills"/><g class="errorbars"/><g class="lines"><path class="js-line" d="M292.16,532L222.95,530.84L262.58,530.26L251.41,529.68L278.02,529.1L277.11,528.52L266.99,527.94L262.72,527.35L283.23,526.77L301.55,525.61L301.16,525.03L274.04,522.71L319.53,522.13L319.66,521.55L318.48,520.97L312.82,519.81L317.49,519.23L315.42,518.06L314.54,517.48L308.21,516.9L261.36,516.32L254.37,515.74L227.66,515.16L184.2,514L165.93,513.42L218.36,511.68L231.71,511.1L230.79,510.52L243.26,509.94L234.58,509.35L238.94,508.77L264.29,507.61L249.1,507.03L175.6,504.13L173.74,503.55L165.05,502.97L77.33,502.39L72.89,501.81L94.2,501.23L136.59,499.48L135.04,498.9L141.86,498.32L209.08,497.74L231.67,496.58L225.58,496L242.85,495.42L240.35,494.84L246.09,494.26L243.94,493.68L256.43,493.1L262.61,492.52L242.71,491.94L227.82,490.19L205.2,489.61L205.59,489.03L190.33,488.45L189.87,487.87L168.5,487.29L103.13,484.97L102.6,484.39L114.27,483.81L147.56,483.23L146.52,482.65L149.62,482.06L151.64,480.9L145.81,480.32L147.91,479.74L166.51,479.16L169.91,478.58L164.76,478L162.39,477.42L231.26,476.84L251.01,475.1L248.45,474.52L260.32,472.19L259.97,471.61L240.63,471.03L250.5,470.45L238.94,469.29L244.34,468.71L250.25,468.13L268.32,467.55L265.39,466.39L257.27,465.81L218.01,464.65L220.08,464.06L223.94,463.48L277.32,462.32L269.49,461.74L269.28,461.16L270.86,460.58L270.02,459.42L271.69,458.84L264.73,457.68L228.46,457.1L167.08,455.94L167.65,455.35L152.64,454.77L154.6,454.19L164.17,453.61L205.99,452.45L206.18,451.87L213.73,450.71L210.4,450.13L210.4,449.55L218.88,448.97L218.01,447.81L190.56,447.23L195.89,446.06L194.8,445.48L194.58,444.9L183.96,444.32L194.8,442L206.18,441.42L247.14,440.26L250.38,439.68L254.98,438.52L253.76,437.94L249.87,437.35L255.71,436.77L273.84,436.19L273.74,435.61L251.39,435.03L227.35,432.13L234.87,431.55L228.14,430.97L205.99,430.39L194.58,429.81L205.79,429.23L197.39,428.65L198.03,428.06L197.39,427.48L203.4,426.9L219.05,426.32L248.32,425.16L234.72,424.58L247.93,422.84L272.92,422.26L275.55,421.68L272.31,421.1L266.49,420.52L238.8,419.94L261.01,419.35L260.9,418.77L267.03,418.19L255.95,417.61L264.95,417.03L230.49,416.45L245.29,415.87L272.41,414.71L270.12,414.13L258.34,413.55L262.72,412.97L259.86,412.39L260.09,411.81L264.51,411.23L275.35,410.06L275.25,409.48L265.94,408.9L267.79,408.32L263.17,407.74L263.17,407.16L267.89,406.58L260.21,405.42L267.25,404.84L250.5,403.1L257.75,402.52L235.02,399.61L228.14,399.03L177.69,396.13L193.7,395.55L196.97,394.97L208.31,394.39L194.36,393.23L208.51,392.65L206.57,392.06L230.95,391.48L244.88,390.32L241.47,389.74L227.66,388.58L231.56,388L260.73,386.84L264.57,386.26L244.01,384.52L241.13,383.94L238.44,383.35L297.09,382.77L298.77,382.19L282.95,381.61L283.82,381.03L281.51,380.45L276,379.87L276.7,379.29L275.28,378.71L276.24,378.13L275.15,377.55L177.77,376.39L161.78,375.81L108.31,374.65L108.73,374.06L93.59,372.9L89.18,372.32L94.07,371.74L81.92,371.16L81.92,370.58L84.05,370L116.69,369.42L116.31,368.84L127.92,368.26L152.8,367.1L145.54,366.52L174.35,364.77L189.35,364.19L178.2,363.61L193.6,363.03L196.28,362.45L192.88,361.87L190.85,361.29L215.82,360.71L211.35,360.13L221.21,359.55L219.68,358.97L215.82,358.39L234.43,357.81L226.6,357.23L220.93,356.65L224.75,356.06L224.61,355.48L229.7,354.9L229.32,354.32L215.08,353.74L214.35,352.58L220.24,352L220.52,350.84L215.23,350.26L215.38,349.68L188.78,349.1L212.86,348.52L208.57,347.94L209.04,347.35L196.46,346.77L156.24,346.19L183.73,345.03L178.83,344.45L179.25,343.87L193.06,343.29L163.29,342.71L165.45,342.13L165.69,341.55L182.53,340.97L181.72,340.39L153.07,339.81L152.26,339.23L164.74,338.65L163.53,338.06L158.56,337.48L159.07,336.9L201.11,336.32L208.41,335.74L196.99,335.16L200.09,334L218.97,333.42L214.05,332.84L237.19,332.26L228.55,331.68L235.76,331.1L217.69,330.52L230.59,329.94L235.88,329.35L250.6,328.77L249.35,328.19L251.84,327.61L247.86,326.45L248.82,325.87L258.69,325.29L250.5,324.71L196.28,321.81L196.11,321.23L206.03,320.65L205.55,320.06L177.57,319.48L177.15,318.9L185.51,318.32L182.93,317.74L188.79,317.16L190.85,316.58L224.34,316L224.75,315.42L213.75,314.84L243.06,313.68L244.28,313.1L268.04,311.94L278.29,311.35L278.37,310.77L264.11,310.19L269.69,309.61L258.69,309.03L234.8,307.87L233.58,307.29L233.58,306.13L236.6,305.55L245.82,304.39L240.34,303.81L267.07,302.65L266.45,302.06L266.36,301.48L242.83,300.9L241.71,300.32L243.62,299.74L239.18,299.16L224.21,298.58L221.07,298L185.51,297.42L181.92,296.84L207.47,296.26L208.72,295.68L204.25,295.1L205.07,294.52L191.59,293.94L194.14,293.35L206.19,292.77L207.47,292.19L224.75,291.61L224.48,291.03L213.61,290.45L213.16,289.87L210.43,289.29L213.46,288.71L201.11,288.13L202.28,287.55L248.5,286.97L249.77,286.39L256.94,285.81L269,285.23L267.51,284.65L273,284.06L269.87,282.9L290.4,282.32L290.19,281.74L260.59,281.16L258.98,280.58L243.17,280L233.94,279.42L243.17,278.84L238.84,278.26L244.39,277.68L244.06,277.1L207.94,276.52L206.99,275.35L207.31,274.77L188.02,273.61L154.67,273.03L143.5,272.45L145.83,271.87L144.67,271.29L178.41,270.71L176.08,270.13L171.69,269.55L174.78,268.97L192.51,268.39L192.69,267.81L198.72,267.23L199.75,266.65L206.99,266.06L207.94,265.48L176.29,264.9L179.04,264.32L193.06,263.74L189.16,263.16L201.94,262.58L202.78,262L216.83,261.42L223.13,260.26L234.67,259.68L253.67,258.52L245.82,257.94L246.14,257.35L259.55,256.77L260.02,256.19L283.25,255.61L285.86,255.03L283.02,254.45L274.25,253.29L275.72,252.71L277.82,252.13L276.69,251.55L258.98,250.39L217.55,249.81L207.62,249.23L215.82,248.65L215.38,248.06L199.58,247.48L185.7,246.32L186.48,245.74L176.29,245.16L177.15,244.58L185.9,244L195.22,243.42L174.35,242.84L171.47,241.68L171.02,241.1L185.9,240.52L185.51,239.94L185.7,239.35L209.97,238.19L201.11,237.61L204.42,237.03L204.09,236.45L242.38,235.87L242.38,235.29L238.95,234.71L239.07,234.13L258.5,233.55L251.22,232.97L273.27,232.39L273.44,231.81L275.32,231.23L275.48,230.65L257.33,230.06L257.53,229.48L293.32,228.9L293.39,228.32L290.61,227.74L293.93,227.16L292.89,226.58L306.54,224.84L306.3,224.26L307.8,223.68L284.38,223.1L296.56,222.52L285.56,221.94L281.95,221.35L255.57,220.77L240.45,219.03L236.12,218.45L233.21,217.87L223.67,217.29L206.99,216.71L211.95,216.13L228.42,214.39L210.12,213.81L255.86,212.06L261.34,211.48L251.74,209.74L244.39,209.16L232.34,207.42L189.35,206.84L182.93,206.26L160.08,205.68L204.74,203.94L283.47,203.35L297.02,201.61L316.03,201.03L325.27,200.45L323.39,199.87L323.34,199.29L313.36,198.13L272.92,197.55L253.06,195.81L225.01,195.23L201.27,194.65L228.55,194.06L229.19,193.48L238.13,192.9L237.78,192.32L226.86,191.74L227.39,191.16L252.96,190.58L254.67,190L249.35,189.42L255.57,188.84L248.18,188.26L237.78,187.1L242.16,186.52L238.6,185.94L242.16,185.35L215.96,184.19L207.47,183.61L182.93,181.87L227.52,181.29L220.93,180.71L225.15,180.13L217.41,178.97L215.67,178.39L236.84,177.23L240.45,176.65L250.39,176.06L226.47,175.48L262.27,172.58L252.04,172L253.37,171.42L245.92,170.84L185.7,167.35L184.92,166.77L191.96,166.19L189.16,165.61L205.87,164.45L208.72,163.87L209.35,163.29L213.01,162.71L214.5,162.13L207.94,161.55L207.94,160.97L203.93,160.39L204.25,159.81L214.35,159.23L220.38,157.48L216.83,156.9L218.41,156.32L239.42,155.74L238.72,155.16L232.59,154.58L228.55,154L199.07,153.42L194.32,152.84L175.65,152.26L161.57,150.52L123.72,149.94L123.36,149.35L142.61,148.77L142.61,148.19L172.58,147.61L171.91,147.03L195.58,146.45L194.32,145.87L218.12,145.29L218.83,144.71L208.88,144.13L208.72,143.55L223.54,142.97L223.67,142.39L461.67,141.81L572.34,140.06L572.96,139.48L572.57,136.58L535.15,136L510.56,135.42L283.17,134.84L219.26,133.1L228.55,132.52L229.06,131.94L215.08,131.35L215.82,130.77L203.6,130.19L203.76,129.61L165.45,129.03L145.54,128.45L159.83,127.87L176.08,127.29L173.03,126.71L172.14,126.13L178.83,124.97L171.69,124.39L170.79,123.81L204.09,123.23L204.58,122.65L212.1,122.06L199.58,121.48L220.38,120.9L221.21,120.32L220.52,119.74L223.27,119.16L253.17,118.58L260.4,118L283.93,117.42L301.67,116.26L336.25,115.68L371.86,113.35L364.29,112.77L363.53,112.19L346.38,111.61L332.72,110.45L296.82,109.87L196.64,107.55L243.95,106.97L243.73,106.39L239.88,105.81L240.91,105.23L266.81,104.65L266.54,104.06L286.08,103.48L278.93,102.9L281.49,102.32L283.7,101.74L258.21,101.16L257.63,100.58L267.51,100L266.9,99.42L253.97,98.84L253.87,98.26L250.5,97.68L278.61,96.52L277.42,95.94L330.07,92.45L321.27,91.87L320.28,91.29L327.06,90.71L327.21,90.13L326.46,89.55L327.21,88.97L322.93,88.39L290.75,87.23L295.82,86.65L290.12,86.06L293.87,85.48L266.72,84.9L269.35,84.32L260.97,83.74L269.69,83.16L264.84,82.58L274.08,82L268.65,81.42L266.09,80.84L272.16,80.26L277.58,79.68L303.18,79.1L307.38,78.52L301.16,77.94L298.66,77.35L290.12,76.77L292.15,76.19L310.33,75.61L312.91,75.03L311.42,74.45L261.06,72.71L286.37,72.13L304.9,70.97L298.59,70.39L280.18,69.81L288.33,69.23L303.36,67.48L316.52,66.9L282.49,65.16L284.97,64.58L281.73,64L289.98,63.42L283.93,62.84L297.28,62.26L287.9,61.68L292.49,61.1L294.95,60.52L301.29,59.94L302.05,59.35L311.71,58.77L310.56,58.19L334.93,57.61L340.01,57.03L417.52,56.45L418.54,54.13L419.34,53.55L400.44,51.23L297.87,50.65L298.92,50.06L290.4,49.48L289.12,48.9L330.07,48.32L325.77,47.74L326.96,47.16L331.54,46.58L322.05,45.42L318.1,44.84L315.64,44.26L308.04,43.68L305.09,43.1L233.33,42.52L279.79,41.35L269.61,40.77L260.21,40.19L263.47,39.61L282.49,37.87L289.48,37.29L297.48,36.71L289.05,36.13L292.01,34.39L295.42,33.81L352.83,32.65L348.04,32.06L343.06,30.32L324.26,29.74L323.39,29.16L325.42,28.58L324.73,28" style="vector-effect: non-scaling-stroke; fill: none; stroke: rgb(31, 119, 180); stroke-opacity: 1; stroke-width: 2px; opacity: 1;"/></g><g class="points"/><g class="text"/></g></g></g><g class="overplot"/><path class="xlines-above crisp" d="M79,620.5H720" style="fill: none; stroke-width: 1px; stroke: rgb(36, 36, 36); stroke-opacity: 1;"/><path class="ylines-above crisp" d="M79.5,60V620" style="fill: none; stroke-width: 1px; stroke: rgb(36, 36, 36); stroke-opacity: 1;"/><g class="overlines-above"/><g class="xaxislayer-above"><path class="xtick ticks crisp" d="M0,621v5" transform="translate(80.37,0)" style="stroke: rgb(68, 68, 68); stroke-opacity: 1; stroke-width: 1px;"/><path class="xtick ticks crisp" d="M0,621v5" transform="translate(151.51,0)" style="stroke: rgb(68, 68, 68); stroke-opacity: 1; stroke-width: 1px;"/><path class="xtick ticks crisp" d="M0,621v5" transform="translate(222.65,0)" style="stroke: rgb(68, 68, 68); stroke-opacity: 1; stroke-width: 1px;"/><path class="xtick ticks crisp" d="M0,621v5" transform="translate(316.7,0)" style="stroke: rgb(68, 68, 68); stroke-opacity: 1; stroke-width: 1px;"/><path class="xtick ticks crisp" d="M0,621v5" transform="translate(387.84,0)" style="stroke: rgb(68, 68, 68); stroke-opacity: 1; stroke-width: 1px;"/><path class="xtick ticks crisp" d="M0,621v5" transform="translate(458.99,0)" style="stroke: rgb(68, 68, 68); stroke-opacity: 1; stroke-width: 1px;"/><path class="xtick ticks crisp" d="M0,621v5" transform="translate(553.03,0)" style="stroke: rgb(68, 68, 68); stroke-opacity: 1; stroke-width: 1px;"/><path class="xtick ticks crisp" d="M0,621v5" transform="translate(624.18,0)" style="stroke: rgb(68, 68, 68); stroke-opacity: 1; stroke-width: 1px;"/><path class="xtick ticks crisp" d="M0,621v5" transform="translate(695.32,0)" style="stroke: rgb(68, 68, 68); stroke-opacity: 1; stroke-width: 1px;"/><g class="xtick"><text text-anchor="middle" x="0" y="637.4" transform="translate(80.37,0)" style="font-family: 'Open Sans', verdana, arial, sans-serif; font-size: 9px; fill: rgb(36, 36, 36); fill-opacity: 1; white-space: pre; opacity: 1;">5</text></g><g class="xtick"><text text-anchor="middle" x="0" y="640.4" style="font-family: 'Open Sans', verdana, arial, sans-serif; font-size: 12px; fill: rgb(36, 36, 36); fill-opacity: 1; white-space: pre; opacity: 1;" transform="translate(151.51,0)">0.01</text></g><g class="xtick"><text text-anchor="middle" x="0" y="637.4" style="font-family: 'Open Sans', verdana, arial, sans-serif; font-size: 9px; fill: rgb(36, 36, 36); fill-opacity: 1; white-space: pre; opacity: 1;" transform="translate(222.65,0)">2</text></g><g class="xtick"><text text-anchor="middle" x="0" y="637.4" style="font-family: 'Open Sans', verdana, arial, sans-serif; font-size: 9px; fill: rgb(36, 36, 36); fill-opacity: 1; white-space: pre; opacity: 1;" transform="translate(316.7,0)">5</text></g><g class="xtick"><text text-anchor="middle" x="0" y="640.4" style="font-family: 'Open Sans', verdana, arial, sans-serif; font-size: 12px; fill: rgb(36, 36, 36); fill-opacity: 1; white-space: pre; opacity: 1;" transform="translate(387.84,0)">0.1</text></g><g class="xtick"><text text-anchor="middle" x="0" y="637.4" style="font-family: 'Open Sans', verdana, arial, sans-serif; font-size: 9px; fill: rgb(36, 36, 36); fill-opacity: 1; white-space: pre; opacity: 1;" transform="translate(458.99,0)">2</text></g><g class="xtick"><text text-anchor="middle" x="0" y="637.4" style="font-family: 'Open Sans', verdana, arial, sans-serif; font-size: 9px; fill: rgb(36, 36, 36); fill-opacity: 1; white-space: pre; opacity: 1;" transform="translate(553.03,0)">5</text></g><g class="xtick"><text text-anchor="middle" x="0" y="640.4" style="font-family: 'Open Sans', verdana, arial, sans-serif; font-size: 12px; fill: rgb(36, 36, 36); fill-opacity: 1; white-space: pre; opacity: 1;" transform="translate(624.18,0)">1</text></g><g class="xtick"><text text-anchor="middle" x="0" y="637.4" style="font-family: 'Open Sans', verdana, arial, sans-serif; font-size: 9px; fill: rgb(36, 36, 36); fill-opacity: 1; white-space: pre; opacity: 1;" transform="translate(695.32,0)">2</text></g></g><g class="yaxislayer-above"><path class="ytick ticks crisp" d="M79,0h-5" transform="translate(0,592.58)" style="stroke: rgb(68, 68, 68); stroke-opacity: 1; stroke-width: 1px;"/><path class="ytick ticks crisp" d="M79,0h-5" transform="translate(0,534.52)" style="stroke: rgb(68, 68, 68); stroke-opacity: 1; stroke-width: 1px;"/><path class="ytick ticks crisp" d="M79,0h-5" transform="translate(0,476.45)" style="stroke: rgb(68, 68, 68); stroke-opacity: 1; stroke-width: 1px;"/><path class="ytick ticks crisp" d="M79,0h-5" transform="translate(0,418.39)" style="stroke: rgb(68, 68, 68); stroke-opacity: 1; stroke-width: 1px;"/><path class="ytick ticks crisp" d="M79,0h-5" transform="translate(0,360.32)" style="stroke: rgb(68, 68, 68); stroke-opacity: 1; stroke-width: 1px;"/><path class="ytick ticks crisp" d="M79,0h-5" transform="translate(0,302.26)" style="stroke: rgb(68, 68, 68); stroke-opacity: 1; stroke-width: 1px;"/><path class="ytick ticks crisp" d="M79,0h-5" transform="translate(0,244.19)" style="stroke: rgb(68, 68, 68); stroke-opacity: 1; stroke-width: 1px;"/><path class="ytick ticks crisp" d="M79,0h-5" transform="translate(0,186.13)" style="stroke: rgb(68, 68, 68); stroke-opacity: 1; stroke-width: 1px;"/><path class="ytick ticks crisp" d="M79,0h-5" transform="translate(0,128.06)" style="stroke: rgb(68, 68, 68); stroke-opacity: 1; stroke-width: 1px;"/><path class="ytick ticks crisp" d="M79,0h-5" transform="translate(0,70)" style="stroke: rgb(68, 68, 68); stroke-opacity: 1; stroke-width: 1px;"/><g class="ytick"><text text-anchor="end" x="71.6" y="4.199999999999999" transform="translate(0,592.58)" style="font-family: 'Open Sans', verdana, arial, sans-serif; font-size: 12px; fill: rgb(36, 36, 36); fill-opacity: 1; white-space: pre; opacity: 1;">0</text></g><g class="ytick"><text text-anchor="end" x="71.6" y="4.199999999999999" style="font-family: 'Open Sans', verdana, arial, sans-serif; font-size: 12px; fill: rgb(36, 36, 36); fill-opacity: 1; white-space: pre; opacity: 1;" transform="translate(0,534.52)">100</text></g><g class="ytick"><text text-anchor="end" x="71.6" y="4.199999999999999" style="font-family: 'Open Sans', verdana, arial, sans-serif; font-size: 12px; fill: rgb(36, 36, 36); fill-opacity: 1; white-space: pre; opacity: 1;" transform="translate(0,476.45)">200</text></g><g class="ytick"><text text-anchor="end" x="71.6" y="4.199999999999999" style="font-family: 'Open Sans', verdana, arial, sans-serif; font-size: 12px; fill: rgb(36, 36, 36); fill-opacity: 1; white-space: pre; opacity: 1;" transform="translate(0,418.39)">300</text></g><g class="ytick"><text text-anchor="end" x="71.6" y="4.199999999999999" style="font-family: 'Open Sans', verdana, arial, sans-serif; font-size: 12px; fill: rgb(36, 36, 36); fill-opacity: 1; white-space: pre; opacity: 1;" transform="translate(0,360.32)">400</text></g><g class="ytick"><text text-anchor="end" x="71.6" y="4.199999999999999" style="font-family: 'Open Sans', verdana, arial, sans-serif; font-size: 12px; fill: rgb(36, 36, 36); fill-opacity: 1; white-space: pre; opacity: 1;" transform="translate(0,302.26)">500</text></g><g class="ytick"><text text-anchor="end" x="71.6" y="4.199999999999999" style="font-family: 'Open Sans', verdana, arial, sans-serif; font-size: 12px; fill: rgb(36, 36, 36); fill-opacity: 1; white-space: pre; opacity: 1;" transform="translate(0,244.19)">600</text></g><g class="ytick"><text text-anchor="end" x="71.6" y="4.199999999999999" style="font-family: 'Open Sans', verdana, arial, sans-serif; font-size: 12px; fill: rgb(36, 36, 36); fill-opacity: 1; white-space: pre; opacity: 1;" transform="translate(0,186.13)">700</text></g><g class="ytick"><text text-anchor="end" x="71.6" y="4.199999999999999" style="font-family: 'Open Sans', verdana, arial, sans-serif; font-size: 12px; fill: rgb(36, 36, 36); fill-opacity: 1; white-space: pre; opacity: 1;" transform="translate(0,128.06)">800</text></g><g class="ytick"><text text-anchor="end" x="71.6" y="4.199999999999999" style="font-family: 'Open Sans', verdana, arial, sans-serif; font-size: 12px; fill: rgb(36, 36, 36); fill-opacity: 1; white-space: pre; opacity: 1;" transform="translate(0,70)">900</text></g></g><g class="overaxes-above"/></g></g><g class="polarlayer"/><g class="smithlayer"/><g class="ternarylayer"/><g class="geolayer"/><g class="funnelarealayer"/><g class="pielayer"/><g class="iciclelayer"/><g class="treemaplayer"/><g class="sunburstlayer"/><g class="glimages"/><defs id="topdefs-5e2a09"><g class="clips"/></defs><g class="layer-above"><g class="imagelayer"/><g class="shapelayer"/></g><g class="infolayer"><g class="g-gtitle"/><g class="g-xtitle"><text class="xtitle" x="400" y="668.20625" text-anchor="middle" style="font-family: 'Open Sans', verdana, arial, sans-serif; font-size: 14px; fill: rgb(36, 36, 36); opacity: 1; font-weight: normal; white-space: pre;">average</text></g><g class="g-ytitle"><text class="ytitle" transform="rotate(-90,23.903125000000003,340)" x="23.903125000000003" y="340" text-anchor="middle" style="font-family: 'Open Sans', verdana, arial, sans-serif; font-size: 14px; fill: rgb(36, 36, 36); opacity: 1; font-weight: normal; white-space: pre;">bed_number_combined</text></g></g></svg>